<svg width="24" height="25" viewBox="0 0 24 25" fill="none" xmlns="http://www.w3.org/2000/svg">
<g clip-path="url(#clip0_274_5115)">
<path d="M19 3.12012H14.82C14.4 1.96012 13.3 1.12012 12 1.12012C10.7 1.12012 9.6 1.96012 9.18 3.12012H5C3.9 3.12012 3 4.02012 3 5.12012V19.1201C3 20.2201 3.9 21.1201 5 21.1201H19C20.1 21.1201 21 20.2201 21 19.1201V5.12012C21 4.02012 20.1 3.12012 19 3.12012ZM12 3.12012C12.55 3.12012 13 3.57012 13 4.12012C13 4.67012 12.55 5.12012 12 5.12012C11.45 5.12012 11 4.67012 11 4.12012C11 3.57012 11.45 3.12012 12 3.12012ZM14 17.1201H7V15.1201H14V17.1201ZM17 13.1201H7V11.1201H17V13.1201ZM17 9.12012H7V7.12012H17V9.12012Z" fill="#FAFCFE"/>
</g>
<defs>
<clipPath id="clip0_274_5115">
<rect width="24" height="24" fill="white" transform="translate(0 0.120117)"/>
</clipPath>
</defs>
</svg>
