<svg width="24" height="25" viewBox="0 0 24 25" fill="none" xmlns="http://www.w3.org/2000/svg">
<g clip-path="url(#clip0_274_5145)">
<path d="M19 2.12012H14.82C14.4 0.960117 13.3 0.120117 12 0.120117C10.7 0.120117 9.6 0.960117 9.18 2.12012H5C3.9 2.12012 3 3.02012 3 4.12012V20.1201C3 21.2201 3.9 22.1201 5 22.1201H19C20.1 22.1201 21 21.2201 21 20.1201V4.12012C21 3.02012 20.1 2.12012 19 2.12012ZM12 2.12012C12.55 2.12012 13 2.57012 13 3.12012C13 3.67012 12.55 4.12012 12 4.12012C11.45 4.12012 11 3.67012 11 3.12012C11 2.57012 11.45 2.12012 12 2.12012ZM18 20.1201H6C5.45 20.1201 5 19.6701 5 19.1201V5.12012C5 4.57012 5.45 4.12012 6 4.12012H7V5.12012C7 6.22012 7.9 7.12012 9 7.12012H15C16.1 7.12012 17 6.22012 17 5.12012V4.12012H18C18.55 4.12012 19 4.57012 19 5.12012V19.1201C19 19.6701 18.55 20.1201 18 20.1201Z" fill="#FAFCFE"/>
</g>
<defs>
<clipPath id="clip0_274_5145">
<rect width="24" height="24" fill="white" transform="translate(0 0.120117)"/>
</clipPath>
</defs>
</svg>
